# xmcd
#
# Track frame offsets:
# 150
# 27043
# 54319
# 86152
# 154888
# 174311
# 195329
# 215724
# 234667
# 249617
#
# Disc length: 3627 seconds
#
#
# Revision: 0
# Processed by: cddbd v1.5.2PL0 Copyright (c) Steve Scherf et al.
# Submitted via: Nero 7, 11, 10, 0 
#
DISCID=7f0e290a
DTITLE=Andy Just - Smokin' Tracks - Live At Muddy Waters [CD2]
DYEAR=2010
DGENRE=Blues
TTITLE0=Bad Boy
TTITLE1=Check Yourself
TTITLE2=Kiddio
TTITLE3=She's Sweet
TTITLE4=You Wreck My Life
TTITLE5=Tell Me Mama
TTITLE6=Get Yourself Together
TTITLE7=All My Whole Life
TTITLE8=My Babe
TTITLE9=Walkin' By Myself
EXTD=
EXTT0=Bad Boy
EXTT1=Check Yourself
EXTT2=Kiddio
EXTT3=She's Sweet
EXTT4=You Wreck My Life
EXTT5=Tell Me Mama
EXTT6=Get Yourself Together
EXTT7=All My Whole Life
EXTT8=My Babe
EXTT9=Walkin' By Myself
PLAYORDER=
